<?xml version="1.0" standalone="no"?><!DOCTYPE svg PUBLIC "-//W3C//DTD SVG 1.1//EN" "http://www.w3.org/Graphics/SVG/1.1/DTD/svg11.dtd"><svg t="1718601974105" class="icon" viewBox="0 0 1024 1024" version="1.1" xmlns="http://www.w3.org/2000/svg" p-id="7998" xmlns:xlink="http://www.w3.org/1999/xlink" width="200" height="200"><path d="M512 46.933333c252.714667 0 458.325333 201.557333 464.896 452.693334l0.085333 6.4 0.085334 0.042666-0.085334 2.133334 0.085334 3.797333h-0.128l-0.042667 3.584c-3.968 104.277333-72.277333 190.378667-161.450667 190.378667-50.346667 0-94.08-27.477333-123.306666-70.144a218.581333 218.581333 0 1 1-38.314667-290.133334v-8.533333h76.8v168.917333c0 69.888 40.533333 123.093333 84.821333 123.093334 42.453333 0 81.578667-49.024 84.608-114.773334l0.128-6.229333-0.085333-7.424a388.266667 388.266667 0 1 0-185.216 342.4l12.8-8.234667 42.752 63.829334A463.786667 463.786667 0 0 1 512 977.066667C255.146667 977.066667 46.933333 768.853333 46.933333 512 46.933333 255.146667 255.146667 46.933333 512 46.933333z m0 323.285334a141.781333 141.781333 0 1 0 0 283.562666 141.781333 141.781333 0 0 0 0-283.562666z" fill="#707070" p-id="7999"></path></svg>