<?xml version="1.0" standalone="no"?><!DOCTYPE svg PUBLIC "-//W3C//DTD SVG 1.1//EN" "http://www.w3.org/Graphics/SVG/1.1/DTD/svg11.dtd"><svg t="1718603023694" class="icon" viewBox="0 0 1024 1024" version="1.1" xmlns="http://www.w3.org/2000/svg" p-id="1194" xmlns:xlink="http://www.w3.org/1999/xlink" width="200" height="200"><path d="M411.76 571.07c-20 0-36.22-16.22-36.22-36.22v-40.43c0-20 16.22-36.22 36.22-36.22s36.22 16.22 36.22 36.22v40.43c-0.01 20.01-16.22 36.22-36.22 36.22zM612.24 571.07c-20 0-36.22-16.22-36.22-36.22v-40.43c0-20 16.22-36.22 36.22-36.22s36.22 16.22 36.22 36.22v40.43c0 20.01-16.22 36.22-36.22 36.22z" p-id="1195" fill="#2c2c2c"></path><path d="M514.56 959.33H241.83c-23.77 0-46.11-9.25-62.91-26.07-16.8-16.81-26.05-39.15-26.04-62.92l0.06-91.69c-58.12-78.02-88.6-170.53-88.27-268.2 0.4-118.14 50.71-234.26 138.03-318.6 87.41-84.42 205.39-130.7 323.63-126.97 242.8 7.65 433 204.05 433 447.12 0 235.23-183.66 429.5-415.12 446.12v1.14l-29.65 0.07z m-1.54-835.36c-98.49 0-196 39.91-269.13 110.54-75.87 73.26-119.58 173.91-119.93 276.14-0.3 87.71 28.06 170.62 82 239.75l6.28 8.05-0.07 111.91c0 7.92 3.08 15.38 8.68 20.98s13.05 8.69 20.97 8.69l272.55-0.07C727.03 898.67 900.03 724.63 900.03 512c0-210.85-164.97-381.21-375.57-387.84-3.81-0.13-7.63-0.19-11.44-0.19z" p-id="1196" fill="#2c2c2c"></path></svg>