<?xml version="1.0" standalone="no"?><!DOCTYPE svg PUBLIC "-//W3C//DTD SVG 1.1//EN" "http://www.w3.org/Graphics/SVG/1.1/DTD/svg11.dtd"><svg t="1718602248485" class="icon" viewBox="0 0 1024 1024" version="1.1" xmlns="http://www.w3.org/2000/svg" p-id="11668" xmlns:xlink="http://www.w3.org/1999/xlink" width="200" height="200"><path d="M512 64C264.6 64 64 264.6 64 512s200.6 448 448 448 448-200.6 448-448S759.4 64 512 64z m0 840c-216.1 0-392-175.9-392-392s175.9-392 392-392 392 175.9 392 392-175.9 392-392 392z" p-id="11669" fill="#ffffff"></path><path d="M316 428c15.5 0 28-12.5 28-28v-28c0-15.5-12.5-28-28-28s-28 12.5-28 28v28c0 15.5 12.5 28 28 28zM708 344c-15.5 0-28 12.5-28 28v28c0 15.5 12.5 28 28 28s28-12.5 28-28v-28c0-15.5-12.5-28-28-28zM708 540c-15.5 0-28 12.5-28 28 0 92.6-75.4 168-168 168s-168-75.4-168-168c0-15.5-12.5-28-28-28s-28 12.5-28 28c0 123.5 100.5 224 224 224s224-100.5 224-224c0-15.5-12.5-28-28-28z" p-id="11670" fill="#ffffff"></path></svg>