<?xml version="1.0" standalone="no"?><!DOCTYPE svg PUBLIC "-//W3C//DTD SVG 1.1//EN" "http://www.w3.org/Graphics/SVG/1.1/DTD/svg11.dtd"><svg t="1718606468561" class="icon" viewBox="0 0 1024 1024" version="1.1" xmlns="http://www.w3.org/2000/svg" p-id="13994" xmlns:xlink="http://www.w3.org/1999/xlink" width="200" height="200"><path d="M1008.794182 514.180666c0 51.085492-41.412179 92.498694-92.497671 92.498694L112.022864 606.679359c-51.083445 0-92.497671-41.413202-92.497671-92.498694l0 0c0-51.083445 41.413202-92.497671 92.497671-92.497671l804.27467 0C967.382003 421.682995 1008.794182 463.096197 1008.794182 514.180666L1008.794182 514.180666z" fill="#ffffff" p-id="13995"></path><path d="M514.159688 19.547195c51.085492 0 92.498694 41.412179 92.498694 92.496647l0 804.273646c0 51.085492-41.413202 92.498694-92.498694 92.498694l0 0c-51.084469 0-92.497671-41.413202-92.497671-92.498694L421.662017 112.043842C421.66304 60.959374 463.076242 19.547195 514.159688 19.547195L514.159688 19.547195z" fill="#ffffff" p-id="13996"></path></svg>